PathFileType   4   (X/Y/Z)																																																																																																																	
DataRate	CameraRate	NumFrames	NumMarkers	Units	OrigDataRate	OrigDataStartFrame	OrigNumFrames																																																																																																										
120	120	11	37	mm	120	14	106																																																																																																										
Frame#	Time	midhip	hip_r	hip_l	knee_r	knee_l	ankle_r	ankle_l	midasis	asis_r	asis_l	psis_r	psis_l	epicondLat_r	epicondLat_l	epicondMed_r	epicondMed_l	malleolusLat_r	malleolusLat_l	malleolusMedv_r	malleolusMedv_l	neck	subclavicle_r	subclavicle_l	sternalnotch	xyphoidprocess	thighwand_r	thighwand_l	upperleg1_r	upperleg1_l	upperleg2_r	upperleg2_l	shankwand_r	shankwand_l	lowerleg1_r	lowerleg1_l	toe_r	toe_l																																																																											
 	 	X1	Y1	Z1	X2	Y2	Z2	X3	Y3	Z3	X4	Y4	Z4	X5	Y5	Z5	X6	Y6	Z6	X7	Y7	Z7	X8	Y8	Z8	X9	Y9	Z9	X10	Y10	Z10	X11	Y11	Z11	X12	Y12	Z12	X13	Y13	Z13	X14	Y14	Z14	X15	Y15	Z15	X16	Y16	Z16	X17	Y17	Z17	X18	Y18	Z18	X19	Y19	Z19	X20	Y20	Z20	X21	Y21	Z21	X22	Y22	Z22	X23	Y23	Z23	X24	Y24	Z24	X25	Y25	Z25	X26	Y26	Z26	X27	Y27	Z27	X28	Y28	Z28	X29	Y29	Z29	X30	Y30	Z30	X31	Y31	Z31	X32	Y32	Z32	X33	Y33	Z33	X34	Y34	Z34	X35	Y35	Z35	X36	Y36	Z36	X37	Y37	Z37	

	14	0.225	651.273	888.451	-273.823	641.009	873.018	-223.961	658.883	882.558	-328.588	700.874	456.571	-195.493	724.578	477.368	-318.24	381.028	194.941	-200.956	645.202	68.284	-312.267	727.166	973.353	-254.369	709.833	964.102	-152.909	744.5	982.604	-355.83	524.464	996.613	-240.741	534.775	1006.693	-324.943	695.025	459.772	-136.368	742.508	478.827	-374.956	721.927	458.362	-256.303	703.567	476.458	-276.197	375.152	201.352	-163.965	646.026	67.548	-351.752	388.47	193.647	-232.216	652.454	74.986	-282.314	597.577	1457.993	-277.585	692.501	1391.101	-187.634	698.298	1382.591	-344.435	683.231	1387.932	-270.514	720.978	1186.538	-264.948	693.222	558.486	-56.347	854.603	623.603	-299.409	726.504	620.143	-121.376	787.163	670.324	-360.89	740.922	539.118	-140.845	786.421	582.61	-353.866	436.26	245.375	-94.632	768.684	159.315	-298.927	475.726	288.923	-156.878	712.837	218.715	-317.086	437.922	86.691	-185.776	772.608	41.462	-317.417
	15	0.23333	663.699	889.734	-272.781	653.381	874.439	-223.993	670.746	883.401	-328.756	724.905	459.564	-195.815	728.437	477.047	-318.809	412.406	189.439	-201.798	645.289	68.309	-312.381	739.43	974.568	-255.369	722.596	965.882	-153.814	756.263	983.255	-356.925	536.808	997.929	-240.157	546.925	1007.483	-324.376	718.943	462.552	-136.69	746.069	478.159	-375.626	745.858	462.055	-256.59	707.249	476.281	-276.719	406.291	195.694	-164.819	646.052	67.533	-351.866	419.718	189.003	-233.104	652.616	75.111	-282.451	610.638	1459.064	-278.087	704.1	1392.041	-187.896	711.206	1383.494	-344.792	695.529	1388.906	-270.927	732.346	1187.349	-265.042	714.402	560.899	-56.104	860.838	620.309	-300.795	746.501	623.421	-121.001	794.029	668.696	-361.452	762.817	542.697	-140.793	791.59	581.046	-354.709	466.111	241.414	-95.455	769.362	158.376	-299.325	505.47	286.047	-157.924	713.293	218.019	-317.487	474.224	84.646	-186.962	772.635	41.431	-317.705
	16	0.24167	675.94	890.758	-271.819	665.732	875.755	-224.002	682.576	884.116	-328.9	748.647	462.706	-196.148	732.366	476.719	-319.398	444.46	183.355	-202.438	645.362	68.36	-312.503	751.691	975.646	-256.372	735.368	967.544	-154.721	768.013	983.748	-358.023	549.168	999.183	-239.521	559.015	1008.183	-323.785	742.656	465.491	-137.016	749.567	477.493	-376.352	769.189	466.004	-256.893	711.377	475.611	-276.628	438.157	189.385	-165.452	646.076	67.542	-351.988	451.373	183.711	-233.802	652.809	75.267	-282.597	623.795	1460.001	-278.481	715.139	1392.586	-188.078	724.177	1384.315	-345.158	707.6	1389.677	-271.35	743.05	1187.875	-265.45	735.56	563.431	-55.844	866.988	616.867	-302.522	766.247	626.78	-120.612	799.934	666.894	-361.937	784.396	546.502	-140.769	796.156	579.389	-355.547	496.64	236.871	-96.08	770.045	157.468	-299.701	535.276	282.484	-158.399	714.456	217.547	-317.929	511.069	82.162	-188.25	772.668	41.414	-318
	17	0.25	687.91	891.411	-271.034	678.012	876.945	-223.882	694.244	884.689	-328.923	772.067	465.968	-196.502	736.405	476.371	-319.979	477.17	176.807	-202.904	645.439	68.442	-312.627	763.88	976.558	-257.33	748.157	969.057	-155.581	779.602	984.059	-359.079	561.563	1000.351	-238.817	571.04	1008.816	-323.158	766.153	468.556	-137.353	753.011	476.835	-377.113	791.844	470.117	-257.177	716.283	473.963	-275.294	470.723	182.563	-165.9	646.097	67.583	-352.112	483.624	177.729	-234.442	653.028	75.489	-282.739	636.851	1460.811	-278.829	727.05	1392.915	-188.095	737.115	1385.007	-345.44	720.062	1390.255	-271.576	754.553	1188.278	-265.986	756.716	566.032	-55.624	873.173	613.34	-304.603	785.707	630.187	-120.214	804.258	664.766	-362.007	805.611	550.489	-140.761	799.711	577.484	-356.124	527.784	231.89	-96.526	770.736	156.585	-300.092	564.029	278.832	-158.521	715.657	217.178	-318.326	548.394	79.372	-189.54	772.702	41.412	-318.3
	18	0.25833	699.687	891.756	-270.445	690.214	877.982	-223.591	705.745	885.088	-328.784	795.113	469.315	-196.88	740.567	475.986	-320.532	510.526	169.911	-203.204	645.535	68.554	-312.738	776.002	977.266	-258.201	760.966	970.387	-156.363	791.037	984.146	-360.039	573.999	1001.4	-238.044	583.007	1009.388	-322.482	789.394	471.715	-137.704	756.411	476.178	-377.883	814.096	474.358	-257.508	721.329	473.056	-277.651	503.963	175.367	-166.175	646.122	67.662	-352.224	516.702	171.362	-234.895	653.214	75.776	-282.893	649.946	1461.484	-279.131	739.708	1393.15	-188.289	749.964	1385.556	-345.691	732.826	1390.698	-271.812	766.635	1188.595	-266.626	777.856	568.667	-55.478	879.506	609.804	-306.997	804.872	633.656	-119.807	811.75	663.125	-363.404	826.579	554.532	-140.819	805.962	575.924	-358.092	559.471	226.612	-96.818	771.438	155.716	-300.512	593.033	274.998	-158.661	716.902	216.857	-318.753	586.184	76.415	-190.719	772.75	41.41	-318.578
	19	0.26667	711.428	891.913	-270.012	702.369	878.836	-223.134	717.128	885.291	-328.479	817.766	472.694	-197.291	744.847	475.546	-321.048	544.538	162.745	-203.336	645.658	68.693	-312.83	788.084	977.748	-258.968	773.806	971.502	-157.052	802.363	983.993	-360.884	586.479	1002.282	-237.213	594.944	1009.873	-321.748	812.338	474.92	-138.081	759.795	475.513	-378.64	835.422	478.656	-257.881	723.931	474.773	-278.101	537.87	167.901	-166.282	646.155	67.774	-352.317	550.709	164.63	-235.097	653.414	76.056	-283.03	663.202	1461.962	-279.34	759.351	1393.184	-189.972	762.837	1385.952	-345.98	748.874	1390.793	-272.273	784.982	1189.05	-268.868	798.92	571.312	-55.402	886.054	606.323	-309.614	824.071	637.166	-119.474	819.951	661.603	-365.191	847.161	558.629	-140.949	811.213	574.395	-359.603	591.64	221.154	-96.983	772.165	154.849	-300.96	622.785	270.875	-158.797	718.238	216.477	-319.29	624.445	73.425	-191.685	772.814	41.395	-318.806
	20	0.275	723.31	892.026	-269.677	714.536	879.478	-222.529	728.511	885.26	-328.02	840.006	476.048	-197.744	749.222	475.035	-321.528	579.186	155.392	-203.309	645.815	68.856	-312.899	800.2	977.974	-259.612	786.692	972.384	-157.644	813.707	983.563	-361.58	599	1002.954	-236.341	606.875	1010.232	-320.962	834.938	478.112	-138.496	763.195	474.825	-379.364	856.239	482.926	-258.326	727.27	475.902	-278.002	572.419	160.253	-166.233	646.207	67.918	-352.386	585.569	157.595	-235.1	653.669	76.291	-283.128	676.352	1462.248	-279.55	766.387	1393.869	-189.246	775.766	1386.15	-346.239	759.044	1391.374	-272.502	792.486	1189.21	-267.329	819.828	573.944	-55.376	892.755	602.938	-312.327	843.316	640.639	-119.254	827.361	659.918	-366.735	867.496	562.721	-141.156	816.076	572.793	-360.985	624.267	215.602	-97.032	772.928	153.98	-301.419	652.883	266.69	-158.837	719.621	216.081	-319.805	663.174	70.516	-192.369	772.875	41.364	-318.982
	21	0.28333	735.355	892.092	-269.409	726.724	879.896	-221.778	739.875	884.995	-327.41	861.807	479.319	-198.234	753.668	474.434	-321.966	614.422	147.954	-203.136	645.999	69.039	-312.946	812.325	977.953	-260.144	799.624	973.028	-158.133	825.025	982.878	-362.155	611.545	1003.39	-235.453	618.809	1010.425	-320.14	857.154	481.234	-138.947	766.65	474.1	-380.031	877.058	487.195	-258.938	732.069	475.683	-277.951	607.571	152.519	-166.039	646.285	68.085	-352.433	620.731	150.559	-234.993	653.92	76.48	-283.184	689.38	1462.367	-279.74	778.572	1393.505	-188.969	788.695	1386.162	-346.402	771.628	1391.258	-272.498	804.264	1188.952	-267.729	840.517	576.547	-55.389	899.529	599.67	-314.991	862.237	643.999	-119.052	833.978	658.103	-367.931	887.691	566.674	-141.483	821.075	571.167	-362.321	657.328	210.021	-96.968	773.738	153.108	-301.852	683.454	262.377	-158.769	721.022	215.681	-320.181	702.374	67.789	-192.72	772.923	41.316	-319.107
	22	0.29167	747.678	892.216	-269.167	738.966	880.084	-220.888	751.25	884.5	-326.656	883.148	482.45	-198.752	758.157	473.743	-322.351	650.191	140.519	-202.815	646.192	69.242	-312.98	824.469	977.701	-260.571	812.616	973.44	-158.512	836.323	981.962	-362.63	624.105	1003.576	-234.567	630.739	1010.411	-319.305	878.971	484.238	-139.426	770.2	473.334	-380.618	897.487	491.315	-259.668	737.173	475.334	-277.842	643.273	144.791	-165.696	646.391	68.272	-352.467	655.842	143.679	-234.911	654.145	76.646	-283.208	702.41	1462.305	-279.845	791.644	1393.043	-189.115	801.651	1386.013	-346.527	784.642	1390.981	-272.623	816.964	1188.615	-268.296	860.983	579.096	-55.436	906.308	596.515	-317.436	880.688	647.214	-118.931	840.561	656.33	-368.955	907.566	570.445	-141.97	826.22	569.654	-363.497	690.774	204.475	-96.786	774.594	152.235	-302.205	714.322	257.963	-158.577	722.5	215.247	-320.509	742.019	65.323	-192.718	772.962	41.255	-319.191
	23	0.3	760.282	892.395	-268.932	751.318	880.044	-219.91	762.714	883.788	-325.803	903.994	485.377	-199.279	762.62	472.983	-322.704	686.438	133.167	-202.335	646.387	69.474	-313.01	836.68	977.239	-260.913	825.689	973.629	-158.784	847.672	980.849	-363.042	636.678	1003.516	-233.684	642.662	1010.163	-318.471	900.377	487.081	-139.913	773.862	472.54	-381.131	917.086	495.076	-260.473	741.417	475.391	-278.194	679.463	137.153	-165.194	646.53	68.484	-352.497	691.226	136.841	-234.578	654.393	76.822	-283.222	715.484	1462.033	-279.888	804.88	1392.482	-189.239	814.631	1385.703	-346.697	797.744	1390.564	-272.749	829.896	1188.163	-268.809	881.282	581.568	-55.516	912.922	593.419	-319.477	898.888	650.112	-119.032	847.796	654.482	-369.587	926.982	574.072	-142.621	831.469	568.173	-364.501	724.527	199.027	-96.473	775.487	151.369	-302.456	745.355	253.503	-158.293	723.979	214.767	-320.791	782.055	63.186	-192.384	772.996	41.191	-319.247
	24	0.30833	772.73	892.164	-268.742	763.855	879.795	-218.873	774.333	882.877	-324.882	924.31	488.041	-199.778	767.02	472.183	-323.048	723.137	125.965	-201.688	646.596	69.749	-313.043	849.012	976.598	-261.209	838.908	973.626	-158.979	859.116	979.57	-363.438	649.274	1003.223	-232.785	654.581	1009.673	-317.637	921.354	489.726	-140.376	777.653	471.732	-381.588	935.75	498.064	-261.13	744.613	476.019	-278.908	716.101	129.678	-164.53	646.708	68.734	-352.529	727.479	129.909	-233.767	654.671	77.034	-283.239	728.642	1461.557	-279.86	818.015	1391.762	-189.381	827.577	1385.206	-346.862	810.781	1389.98	-272.886	842.648	1187.527	-269.286	901.445	583.948	-55.627	919.279	590.336	-321.006	917.048	652.658	-119.567	855.748	652.512	-369.771	945.931	577.497	-143.403	836.772	566.643	-365.237	758.514	193.739	-96.011	776.441	150.516	-302.63	776.582	249.045	-157.943	725.52	214.312	-320.947	822.405	61.439	-191.774	773.022	41.134	-319.296
